<?xml version="1.0" encoding="UTF-8" standalone="no"?>
<svg
   xmlns:dc="http://purl.org/dc/elements/1.1/"
   xmlns:cc="http://creativecommons.org/ns#"
   xmlns:rdf="http://www.w3.org/1999/02/22-rdf-syntax-ns#"
   xmlns:svg="http://www.w3.org/2000/svg"
   xmlns="http://www.w3.org/2000/svg"
   viewBox="0 0 1000 666.66669"
   height="666.66669"
   width="1000"
   xml:space="preserve"
   id="svg2"
   version="1.1"><metadata
     id="metadata8"><rdf:RDF><cc:Work
         rdf:about=""><dc:format>image/svg+xml</dc:format><dc:type
           rdf:resource="http://purl.org/dc/dcmitype/StillImage" /></cc:Work></rdf:RDF></metadata><defs
     id="defs6"><clipPath
       id="clipPath18"
       clipPathUnits="userSpaceOnUse"><path
         id="path16"
         d="M 0,500 H 750 V 0 H 0 Z" /></clipPath><clipPath
       id="clipPath94"
       clipPathUnits="userSpaceOnUse"><path
         id="path92"
         d="M 0,500 H 750 V 0 H 0 Z" /></clipPath><clipPath
       id="clipPath110"
       clipPathUnits="userSpaceOnUse"><path
         id="path108"
         d="M 0,500 H 750 V 0 H 0 Z" /></clipPath><clipPath
       id="clipPath122"
       clipPathUnits="userSpaceOnUse"><path
         id="path120"
         d="m 540.253,134.239 h 36.28 V 90.624 h -36.28 z" /></clipPath><clipPath
       id="clipPath146"
       clipPathUnits="userSpaceOnUse"><path
         id="path144"
         d="m 608.16,110.203 h 34.457 V 64.0508 H 608.16 Z" /></clipPath><clipPath
       id="clipPath258"
       clipPathUnits="userSpaceOnUse"><path
         id="path256"
         d="m 551.823,305.084 h 25.342 v -35.969 h -25.342 z" /></clipPath><clipPath
       id="clipPath298"
       clipPathUnits="userSpaceOnUse"><path
         id="path296"
         d="m 603.103,265.537 h 13.855 V 243.32 h -13.855 z" /></clipPath><clipPath
       id="clipPath314"
       clipPathUnits="userSpaceOnUse"><path
         id="path312"
         d="m 591.717,324.795 h 11.972 v -43.107 h -11.972 z" /></clipPath><clipPath
       id="clipPath386"
       clipPathUnits="userSpaceOnUse"><path
         id="path384"
         d="m 608.249,242.776 h 7.675 v -5.285 h -7.675 z" /></clipPath><clipPath
       id="clipPath418"
       clipPathUnits="userSpaceOnUse"><path
         id="path416"
         d="M 0,500 H 750 V 0 H 0 Z" /></clipPath><clipPath
       id="clipPath434"
       clipPathUnits="userSpaceOnUse"><path
         id="path432"
         d="m 172.04,431.539 h 24.654 V 396.634 H 172.04 Z" /></clipPath><clipPath
       id="clipPath472"
       clipPathUnits="userSpaceOnUse"><path
         id="path470"
         d="M 0,500 H 750 V 0 H 0 Z" /></clipPath><clipPath
       id="clipPath480"
       clipPathUnits="userSpaceOnUse"><path
         id="path478"
         d="m 148.902,198.705 h 41.805 v -16.427 h -41.805 z" /></clipPath><clipPath
       id="clipPath496"
       clipPathUnits="userSpaceOnUse"><path
         id="path494"
         d="M 0,500 H 750 V 0 H 0 Z" /></clipPath><clipPath
       id="clipPath504"
       clipPathUnits="userSpaceOnUse"><path
         id="path502"
         d="m 304.989,149.16 h 41.806 v -16.427 h -41.806 z" /></clipPath><clipPath
       id="clipPath520"
       clipPathUnits="userSpaceOnUse"><path
         id="path518"
         d="M 0,500 H 750 V 0 H 0 Z" /></clipPath><clipPath
       id="clipPath528"
       clipPathUnits="userSpaceOnUse"><path
         id="path526"
         d="m 460.001,101.766 h 41.806 V 85.3383 h -41.806 z" /></clipPath><clipPath
       id="clipPath544"
       clipPathUnits="userSpaceOnUse"><path
         id="path542"
         d="M 0,500 H 750 V 0 H 0 Z" /></clipPath><clipPath
       id="clipPath552"
       clipPathUnits="userSpaceOnUse"><path
         id="path550"
         d="m 615.013,64.0508 h 41.806 V 47.6236 h -41.806 z" /></clipPath></defs><g
     transform="matrix(1.3333333,0,0,-1.3333333,0,666.66667)"
     id="g10"><g
       id="g12"><g
         clip-path="url(#clipPath18)"
         id="g14"><g
           transform="translate(199.0309,307.7014)"
           id="g20"><path
             id="path22"
             style="fill:#ebebeb;fill-opacity:1;fill-rule:nonzero;stroke:none"
             d="m 0,0 c 0,0 -5.596,4.583 -14.382,-9.024 -8.787,-13.607 -12.407,-21.602 -12.407,-21.602 0,0 -2.241,-2.811 -4.107,-0.633 -1.864,2.177 -4.123,8.045 -7.738,7.4 -3.749,-0.668 -5.365,-4.61 -5.282,-10.655 0.083,-6.044 -0.221,-19.294 -0.253,-20.491 -0.031,-1.177 -0.875,-2.827 -2.384,-1.547 -1.508,1.28 -9.776,12.628 -14.926,8.382 -5.149,-4.246 -2.152,-21.046 -1.859,-22.889 0.293,-1.843 -0.137,-2.573 -1.035,-2.93 -0.898,-0.357 -3.317,3.72 -5.801,6.851 -2.484,3.131 -5.912,6.326 -8.679,3.628 -2.765,-2.698 -4.808,-14.865 4.811,-35.951 l 5.097,-9.48 10.798,-0.503 c 23.174,0.33 33.296,7.383 34.552,11.037 1.255,3.656 -3.1,5.387 -6.993,6.291 -3.893,0.906 -8.613,1.348 -8.675,2.312 -0.062,0.964 0.415,1.665 2.206,2.188 1.79,0.526 18.258,5.006 19.891,11.477 1.633,6.472 -12.162,9.088 -13.963,9.902 -1.803,0.816 -0.672,2.285 0.378,2.818 1.068,0.541 12.913,6.486 18.411,8.998 5.499,2.511 8.37,5.659 7.37,9.333 -0.965,3.543 -7.234,3.074 -10,3.827 -2.766,0.754 -1.186,3.983 -1.186,3.983 0,0 5.677,6.693 14.215,20.457 8.538,13.765 1.821,16.906 1.821,16.906" /></g><g
           transform="translate(128.1764,197.0095)"
           id="g24"><path
             id="path26"
             style="fill:#e0e0e0;fill-opacity:1;fill-rule:nonzero;stroke:none"
             d="m 0,0 c 6.31,10.084 17.826,27.818 27.634,43.096 9.805,15.272 18.669,29.107 25.03,39.158 3.169,5.02 5.737,9.087 7.52,11.911 0.883,1.397 1.572,2.485 2.047,3.237 0.232,0.36 0.412,0.638 0.54,0.838 0.123,0.188 0.193,0.279 0.193,0.279 0,0 -0.05,-0.103 -0.164,-0.297 -0.122,-0.204 -0.292,-0.488 -0.511,-0.855 -0.464,-0.76 -1.134,-1.86 -1.994,-3.27 C 58.56,91.258 56.021,87.169 52.864,82.128 46.554,72.044 37.721,58.187 27.916,42.915 18.107,27.638 6.561,9.925 0.2,-0.127" /></g><g
           transform="translate(163.2267,275.5075)"
           id="g28"><path
             id="path30"
             style="fill:#e0e0e0;fill-opacity:1;fill-rule:nonzero;stroke:none"
             d="m 0,0 c 0.022,0.004 0.091,-0.265 0.195,-0.754 0.107,-0.489 0.241,-1.2 0.397,-2.08 0.31,-1.762 0.675,-4.206 1.03,-6.909 0.34,-2.668 0.648,-5.08 0.883,-6.925 0.112,-0.831 0.205,-1.532 0.281,-2.096 0.068,-0.494 0.096,-0.77 0.073,-0.775 -0.023,-0.003 -0.093,0.264 -0.201,0.753 -0.106,0.49 -0.239,1.201 -0.387,2.083 -0.292,1.765 -0.625,4.213 -0.98,6.916 -0.359,2.664 -0.684,5.073 -0.933,6.916 -0.115,0.83 -0.212,1.532 -0.291,2.095 C 0.002,-0.28 -0.023,-0.004 0,0" /></g><g
           transform="translate(167.0495,255.6784)"
           id="g32"><path
             id="path34"
             style="fill:#e0e0e0;fill-opacity:1;fill-rule:nonzero;stroke:none"
             d="m 0,0 c -0.016,0.091 4.988,1.066 11.177,2.179 6.19,1.113 11.22,1.942 11.237,1.85 C 22.43,3.939 17.426,2.963 11.236,1.85 5.047,0.738 0.016,-0.091 0,0" /></g><g
           transform="translate(150.9323,232.9011)"
           id="g36"><path
             id="path38"
             style="fill:#e0e0e0;fill-opacity:1;fill-rule:nonzero;stroke:none"
             d="m 0,0 c 0.003,0.022 0.286,0.005 0.793,-0.045 0.576,-0.061 1.295,-0.137 2.148,-0.227 1.813,-0.19 4.319,-0.441 7.093,-0.617 2.775,-0.181 5.292,-0.258 7.114,-0.299 0.858,-0.021 1.581,-0.039 2.16,-0.052 0.51,-0.015 0.792,-0.033 0.792,-0.057 10e-4,-0.023 -0.281,-0.048 -0.791,-0.073 -0.511,-0.025 -1.249,-0.048 -2.162,-0.055 -1.826,-0.019 -4.352,0.021 -7.134,0.203 -2.783,0.176 -5.291,0.465 -7.1,0.715 -0.904,0.128 -1.635,0.24 -2.137,0.333 C 0.273,-0.084 -0.003,-0.023 0,0" /></g><g
           transform="translate(143.5265,250.0754)"
           id="g40"><path
             id="path42"
             style="fill:#e0e0e0;fill-opacity:1;fill-rule:nonzero;stroke:none"
             d="m 0,0 c 0.021,0.009 0.147,-0.22 0.358,-0.642 0.234,-0.49 0.522,-1.092 0.862,-1.802 0.715,-1.526 1.681,-3.645 2.73,-5.993 1.049,-2.35 1.981,-4.484 2.641,-6.035 0.301,-0.728 0.557,-1.343 0.765,-1.845 0.174,-0.438 0.26,-0.685 0.239,-0.695 -0.021,-0.009 -0.147,0.22 -0.358,0.642 -0.234,0.49 -0.522,1.091 -0.862,1.801 -0.715,1.527 -1.682,3.646 -2.73,5.995 C 2.596,-6.225 1.664,-4.091 1.004,-2.54 0.703,-1.813 0.447,-1.197 0.239,-0.695 0.065,-0.256 -0.021,-0.01 0,0" /></g><g
           transform="translate(126.7433,231.7741)"
           id="g44"><path
             id="path46"
             style="fill:#e0e0e0;fill-opacity:1;fill-rule:nonzero;stroke:none"
             d="M 0,0 C 0.021,0.01 0.18,-0.284 0.45,-0.825 0.74,-1.426 1.114,-2.2 1.563,-3.13 c 0.928,-1.952 2.187,-4.657 3.56,-7.654 1.373,-2.998 2.599,-5.72 3.471,-7.697 0.41,-0.948 0.752,-1.737 1.017,-2.349 0.233,-0.557 0.352,-0.87 0.331,-0.88 -0.021,-0.009 -0.18,0.285 -0.449,0.826 -0.291,0.601 -0.665,1.375 -1.114,2.304 -0.927,1.952 -2.187,4.658 -3.56,7.656 -1.373,2.997 -2.598,5.719 -3.47,7.695 C 0.938,-2.281 0.597,-1.491 0.332,-0.88 0.098,-0.322 -0.021,-0.009 0,0" /></g><g
           transform="translate(136.5939,210.6501)"
           id="g48"><path
             id="path50"
             style="fill:#e0e0e0;fill-opacity:1;fill-rule:nonzero;stroke:none"
             d="m 0,0 c 0.002,0.023 0.361,0.011 1.007,-0.03 0.705,-0.05 1.625,-0.114 2.733,-0.191 2.308,-0.158 5.497,-0.364 9.023,-0.492 3.527,-0.134 6.722,-0.17 9.035,-0.181 1.112,-0.004 2.034,-0.009 2.741,-0.013 0.647,-0.006 1.005,-0.021 1.005,-0.043 0.001,-0.024 -0.357,-0.053 -1.003,-0.087 C 23.894,-1.071 22.958,-1.106 21.8,-1.129 19.485,-1.18 16.283,-1.181 12.75,-1.047 9.218,-0.919 6.026,-0.675 3.721,-0.456 2.568,-0.344 1.637,-0.244 0.995,-0.16 0.352,-0.078 -0.002,-0.022 0,0" /></g><g
           transform="translate(110.9142,269.5622)"
           id="g52"><path
             id="path54"
             style="fill:#e0e0e0;fill-opacity:1;fill-rule:nonzero;stroke:none"
             d="m 0,0 c 0,0 0.118,-1.72 -0.28,-4.93 -0.429,-3.18 -1.454,-7.937 -4.494,-13.232 l -0.104,0.182 h 0.009 l 0.208,0.001 -0.103,-0.182 c -6.518,-11.561 -16.3,-28.908 -28.009,-49.674 l -0.176,-0.311 -0.19,0.303 c -8.913,14.217 -18.985,30.283 -29.609,47.232 -0.499,0.797 -0.997,1.591 -1.456,2.325 l -0.226,0.36 0.426,-0.001 h 0.001 l -0.203,-0.353 c -2.271,3.889 -3.764,8.155 -4.462,12.477 -0.334,2.162 -0.521,4.338 -0.444,6.491 0.059,1.076 0.117,2.147 0.175,3.214 0.16,1.056 0.319,2.108 0.477,3.155 1.625,8.339 6.156,15.653 12.087,20.668 2.987,2.493 6.317,4.394 9.741,5.725 l 1.288,0.48 0.64,0.238 0.658,0.176 c 0.877,0.228 1.747,0.455 2.61,0.68 1.762,0.266 3.488,0.626 5.218,0.632 1.723,0.158 3.416,-0.004 5.077,-0.09 0.828,-0.066 1.637,-0.245 2.444,-0.36 0.403,-0.065 0.803,-0.13 1.202,-0.194 0.395,-0.083 0.78,-0.203 1.168,-0.302 0.771,-0.209 1.536,-0.416 2.292,-0.621 0.732,-0.279 1.456,-0.555 2.173,-0.829 0.356,-0.14 0.718,-0.263 1.064,-0.417 0.339,-0.17 0.675,-0.339 1.01,-0.507 0.669,-0.337 1.33,-0.672 1.983,-1.002 5.072,-2.951 8.879,-6.803 11.502,-10.617 2.642,-3.828 4.108,-7.601 5.011,-10.722 0.381,-1.585 0.767,-2.983 0.883,-4.236 0.174,-1.242 0.344,-2.29 0.335,-3.15 C -0.045,1.763 -0.022,1.115 -0.007,0.662 0.006,0.224 0,0 0,0 c 0,0 -0.026,0.224 -0.054,0.662 -0.027,0.451 -0.065,1.097 -0.113,1.941 -0.006,0.857 -0.191,1.9 -0.379,3.135 -0.13,1.246 -0.528,2.635 -0.92,4.208 -0.926,3.098 -2.407,6.837 -5.051,10.623 -2.624,3.773 -6.417,7.575 -11.45,10.479 -0.648,0.325 -1.304,0.653 -1.967,0.985 -0.332,0.165 -0.666,0.332 -1.002,0.499 -0.343,0.151 -0.702,0.271 -1.055,0.409 -0.71,0.268 -1.427,0.539 -2.153,0.813 -0.749,0.201 -1.505,0.403 -2.27,0.607 -0.383,0.097 -0.764,0.215 -1.155,0.296 -0.395,0.062 -0.791,0.125 -1.19,0.188 -0.799,0.111 -1.599,0.286 -2.418,0.349 -1.644,0.08 -3.317,0.238 -5.021,0.077 -1.71,-0.01 -3.416,-0.372 -5.156,-0.637 -0.852,-0.224 -1.711,-0.45 -2.577,-0.678 l -0.65,-0.174 -0.632,-0.238 -1.271,-0.477 c -3.379,-1.322 -6.665,-3.205 -9.612,-5.671 -5.85,-4.964 -10.316,-12.191 -11.914,-20.425 -0.156,-1.034 -0.312,-2.073 -0.469,-3.117 -0.056,-1.053 -0.113,-2.111 -0.17,-3.173 -0.076,-2.127 0.111,-4.275 0.441,-6.41 0.692,-4.266 2.166,-8.476 4.407,-12.314 l 0.207,-0.354 -0.41,10e-4 h -10e-4 l 0.199,0.359 c 0.46,-0.734 0.957,-1.528 1.456,-2.324 10.611,-16.957 20.67,-33.032 29.571,-47.256 l -0.365,-0.008 c 11.776,20.728 21.614,38.044 28.17,49.583 l 0.105,-0.18 h -0.009 -0.21 l 0.106,0.181 c 3.049,5.242 4.108,9.965 4.576,13.128 0.23,1.595 0.296,2.828 0.349,3.656 0.015,0.405 0.026,0.715 0.035,0.939 C -0.013,-0.107 0,0 0,0" /></g><g
           transform="translate(98.3488,269.9572)"
           id="g56"><path
             id="path58"
             style="fill:#e0e0e0;fill-opacity:1;fill-rule:nonzero;stroke:none"
             d="m 0,0 c -0.008,0 -0.022,0.12 -0.041,0.354 -0.018,0.257 -0.042,0.601 -0.073,1.038 -0.014,0.231 -0.031,0.485 -0.048,0.764 -0.03,0.28 -0.091,0.583 -0.141,0.913 -0.105,0.66 -0.204,1.424 -0.457,2.255 -0.386,1.687 -1.175,3.68 -2.419,5.794 -1.253,2.104 -3.061,4.302 -5.523,6.169 -2.454,1.85 -5.55,3.425 -9.128,4.066 -3.552,0.618 -7.564,0.516 -11.387,-0.926 -0.973,-0.309 -1.888,-0.788 -2.828,-1.237 -0.892,-0.536 -1.83,-1.029 -2.66,-1.701 -0.882,-0.602 -1.653,-1.357 -2.462,-2.083 -0.73,-0.804 -1.498,-1.592 -2.127,-2.506 -1.294,-1.787 -2.424,-3.773 -3.11,-5.958 -0.712,-2.172 -1.097,-4.48 -1.135,-6.829 0.025,-2.35 0.399,-4.66 1.099,-6.837 0.674,-2.189 1.795,-4.181 3.079,-5.976 0.626,-0.917 1.389,-1.708 2.116,-2.517 0.804,-0.73 1.572,-1.489 2.451,-2.096 0.827,-0.676 1.763,-1.174 2.651,-1.715 0.939,-0.453 1.852,-0.937 2.823,-1.251 3.817,-1.462 7.828,-1.584 11.384,-0.983 3.58,0.623 6.686,2.182 9.148,4.02 2.472,1.855 4.29,4.044 5.554,6.142 1.254,2.106 2.053,4.096 2.447,5.781 0.257,0.83 0.36,1.593 0.469,2.252 0.051,0.33 0.113,0.632 0.145,0.912 0.019,0.279 0.036,0.533 0.052,0.764 0.033,0.437 0.059,0.781 0.078,1.037 C -0.022,-0.12 -0.008,0 0,0 c 0.008,0 0.01,-0.12 0.005,-0.355 -0.007,-0.257 -0.018,-0.603 -0.032,-1.042 -0.009,-0.232 -0.018,-0.489 -0.029,-0.77 -0.025,-0.282 -0.079,-0.587 -0.124,-0.92 -0.094,-0.665 -0.185,-1.436 -0.429,-2.277 -0.37,-1.706 -1.152,-3.726 -2.4,-5.871 -1.257,-2.136 -3.082,-4.371 -5.578,-6.272 -2.487,-1.882 -5.637,-3.487 -9.278,-4.138 -3.617,-0.629 -7.705,-0.52 -11.604,0.959 -0.991,0.319 -1.924,0.808 -2.883,1.269 -0.908,0.549 -1.864,1.057 -2.71,1.744 -0.898,0.618 -1.684,1.39 -2.506,2.135 -0.744,0.824 -1.524,1.632 -2.164,2.567 -1.314,1.83 -2.46,3.865 -3.152,6.101 -0.718,2.223 -1.099,4.584 -1.125,6.985 0.038,2.399 0.433,4.757 1.161,6.976 0.704,2.232 1.86,4.26 3.183,6.083 0.645,0.931 1.43,1.735 2.177,2.555 0.826,0.74 1.615,1.508 2.517,2.122 0.848,0.682 1.807,1.186 2.719,1.729 0.96,0.456 1.895,0.941 2.888,1.254 3.906,1.459 7.994,1.548 11.607,0.901 3.638,-0.669 6.779,-2.289 9.257,-4.184 2.487,-1.913 4.3,-4.157 5.547,-6.3 C -1.715,9.1 -0.944,7.076 -0.583,5.368 -0.342,4.526 -0.255,3.754 -0.164,3.088 -0.122,2.755 -0.068,2.45 -0.045,2.167 -0.036,1.886 -0.027,1.63 -0.02,1.398 -0.008,0.958 0,0.613 0.007,0.355 0.01,0.12 0.008,0 0,0" /></g><g
           transform="translate(76.027,259.7678)"
           id="g60"><path
             id="path62"
             style="fill:#e0e0e0;fill-opacity:1;fill-rule:nonzero;stroke:none"
             d="m 0,0 -12.723,8.877 3.098,4.439 8.531,-5.952 11.036,14.023 4.254,-3.347 z" /></g><g
           transform="translate(426.9821,400.6706)"
           id="g64"><path
             id="path66"
             style="fill:#f5f5f5;fill-opacity:1;fill-rule:evenodd;stroke:none"
             d="m 0,0 c -11.703,-0.418 -20.026,-11.35 -17.312,-22.743 2.007,-8.426 9.855,-14.397 18.512,-14.081 11.696,0.427 20.007,11.349 17.301,22.734 C 16.498,-5.664 8.655,0.309 0,0 m 5.103,23.462 c 3.761,-0.472 7.396,-1.444 10.821,-2.858 l 7.954,6.667 13.662,-10.4 -4.304,-9.442 c 2.275,-2.925 4.182,-6.168 5.639,-9.67 l 10.334,-0.911 2.307,-17.014 -9.716,-3.632 c -0.47,-3.763 -1.446,-7.398 -2.86,-10.822 l 6.666,-7.955 -10.397,-13.661 -9.443,4.303 c -2.925,-2.274 -6.168,-4.179 -9.671,-5.637 l -0.909,-10.334 -17.016,-2.309 -3.631,9.717 c -3.764,0.471 -7.396,1.445 -10.822,2.859 l -7.956,-6.666 -13.662,10.398 4.305,9.444 c -2.274,2.924 -4.178,6.168 -5.638,9.669 l -10.332,0.912 -2.309,17.014 9.717,3.631 c 0.47,3.763 1.444,7.399 2.859,10.823 l -6.667,7.955 10.398,13.662 9.443,-4.306 c 2.925,2.275 6.168,4.181 9.671,5.639 l 0.91,10.333 17.013,2.308 z" /></g><g
           transform="translate(273.8341,354.506)"
           id="g68"><path
             id="path70"
             style="fill:#ebebeb;fill-opacity:1;fill-rule:evenodd;stroke:none"
             d="m 0,0 c -7.597,-0.271 -13,-7.368 -11.238,-14.763 1.303,-5.47 6.398,-9.346 12.017,-9.141 7.592,0.278 12.987,7.367 11.231,14.758 C 10.709,-3.677 5.618,0.201 0,0 m 3.313,15.23 c 2.441,-0.307 4.801,-0.938 7.024,-1.855 l 5.163,4.327 8.869,-6.75 -2.794,-6.13 c 1.476,-1.898 2.714,-4.004 3.66,-6.277 l 6.708,-0.591 1.498,-11.044 -6.307,-2.358 c -0.305,-2.443 -0.938,-4.802 -1.857,-7.025 l 4.327,-5.164 -6.749,-8.868 -6.129,2.794 c -1.899,-1.477 -4.005,-2.713 -6.279,-3.66 l -0.59,-6.708 -11.045,-1.499 -2.357,6.308 c -2.443,0.306 -4.801,0.938 -7.025,1.856 l -5.164,-4.328 -8.869,6.751 2.795,6.13 c -1.476,1.898 -2.712,4.004 -3.66,6.277 l -6.707,0.591 -1.499,11.044 6.308,2.357 c 0.305,2.443 0.937,4.803 1.856,7.026 l -4.328,5.164 6.749,8.868 6.131,-2.795 c 1.898,1.477 4.003,2.714 6.277,3.661 l 0.591,6.707 11.044,1.499 z" /></g><g
           transform="translate(369.8175,289.0099)"
           id="g72"><path
             id="path74"
             style="fill:#ebebeb;fill-opacity:1;fill-rule:nonzero;stroke:none"
             d="m 0,0 c 0,0 1.64,-0.6 3.992,-2.64 2.3,-2.006 5.284,-5.793 6.191,-11.379 0.428,-2.755 0.354,-5.918 -0.684,-9.065 -1.044,-3.119 -2.875,-6.294 -5.709,-8.738 -1.377,-1.256 -2.999,-2.308 -4.77,-3.122 -1.761,-0.841 -3.696,-1.42 -5.711,-1.669 -4.023,-0.59 -8.363,0.205 -12.158,2.245 -3.762,2.104 -6.766,5.337 -8.432,9.048 -0.872,1.834 -1.424,3.777 -1.662,5.714 -0.265,1.931 -0.25,3.865 0.069,5.701 0.538,3.704 2.232,6.955 4.301,9.511 2.097,2.567 4.725,4.33 7.28,5.449 5.198,2.237 9.995,1.755 12.921,0.893 C -1.387,1.061 0,0 0,0 c -0.058,-0.125 -1.53,0.792 -4.481,1.53 -2.897,0.719 -7.544,1.048 -12.494,-1.192 -2.433,-1.12 -4.919,-2.842 -6.887,-5.314 -1.94,-2.463 -3.522,-5.571 -4.002,-9.085 -0.29,-1.743 -0.292,-3.575 -0.03,-5.402 0.235,-1.832 0.766,-3.669 1.599,-5.399 1.587,-3.504 4.426,-6.543 7.979,-8.534 3.588,-1.924 7.675,-2.685 11.482,-2.141 1.906,0.228 3.739,0.767 5.41,1.554 1.682,0.761 3.226,1.747 4.539,2.928 2.705,2.293 4.476,5.297 5.51,8.257 1.028,2.987 1.144,6.009 0.783,8.662 C 8.636,-8.756 5.862,-5.014 3.699,-2.957 1.49,-0.865 -0.074,-0.116 0,0" /></g><g
           transform="translate(390.441,304.5807)"
           id="g76"><path
             id="path78"
             style="fill:#ebebeb;fill-opacity:1;fill-rule:nonzero;stroke:none"
             d="m 0,0 c -0.015,-0.004 0.035,0.218 0.148,0.663 0.129,0.488 0.301,1.144 0.525,1.992 0.5,1.823 1.219,4.448 2.151,7.855 l 0.085,-0.203 c -4.056,2.194 -9.389,5.08 -15.841,8.57 l 0.346,0.06 c -2.175,-2.478 -4.592,-5.231 -7.178,-8.177 l -0.129,-0.148 -0.193,0.047 c -3.556,0.864 -7.467,1.339 -11.586,1.226 l -0.22,-0.006 -0.108,0.194 c -1.655,2.963 -3.445,6.17 -5.309,9.506 l 0.456,-0.188 c -5.441,-1.6 -11.214,-3.298 -17.277,-5.08 l 0.313,0.445 c 0.212,-3.363 0.445,-7.068 0.684,-10.865 l 0.018,-0.277 -0.239,-0.144 c -3.093,-1.869 -6.255,-4.332 -9.05,-7.284 l -0.199,-0.21 -0.28,0.08 c -3.244,0.924 -6.822,1.943 -10.465,2.981 l 0.569,0.237 c -2.715,-4.963 -5.642,-10.316 -8.642,-15.802 l -0.111,0.634 c 2.54,-2.243 5.329,-4.707 8.155,-7.203 l 0.238,-0.211 -0.076,-0.311 c -0.871,-3.53 -1.355,-7.508 -1.248,-11.532 l 0.008,-0.325 -0.285,-0.158 c -2.981,-1.656 -6.233,-3.462 -9.517,-5.286 l 0.257,0.627 c 1.598,-5.475 3.312,-11.342 5.048,-17.29 l -0.563,0.396 c 3.433,0.21 7.137,0.437 10.868,0.665 l 0.335,0.02 0.173,-0.287 c 1.901,-3.157 4.361,-6.295 7.247,-9.037 l 0.004,-0.003 0.002,-0.003 c 0.068,-0.247 -0.149,0.553 0.152,-0.556 l -0.003,-0.009 -0.006,-0.022 -0.011,-0.041 -0.024,-0.082 -0.047,-0.165 -0.094,-0.329 -0.189,-0.658 -0.377,-1.316 -0.752,-2.624 c -0.5,-1.745 -0.998,-3.484 -1.494,-5.215 l -0.266,0.638 c 5.336,-2.929 10.601,-5.818 15.79,-8.666 l -0.674,-0.118 c 2.428,2.743 4.833,5.458 7.214,8.146 l 0.219,0.247 0.32,-0.079 c 3.809,-0.944 7.699,-1.359 11.529,-1.266 l 0.326,0.008 0.157,-0.285 c 1.783,-3.22 3.54,-6.392 5.274,-9.523 l -0.609,0.251 c 5.904,1.715 11.671,3.39 17.294,5.022 l -0.366,-0.52 c -0.221,3.687 -0.437,7.308 -0.65,10.867 l -0.017,0.302 0.257,0.154 c 3.401,2.044 6.447,4.506 9.07,7.251 l 0.201,0.211 0.278,-0.08 c 3.586,-1.033 7.062,-2.035 10.456,-3.013 l -0.531,-0.221 c 3.06,5.547 5.947,10.786 8.696,15.772 l 0.091,-0.522 c -2.86,2.544 -5.544,4.93 -8.132,7.232 l -0.18,0.161 0.057,0.233 c 1.004,4.033 1.371,7.902 1.296,11.569 l -0.005,0.222 0.193,0.106 c 3.465,1.907 6.587,3.625 9.537,5.249 l -0.157,-0.378 c -1.922,6.707 -3.561,12.421 -4.963,17.313 l 0.254,-0.178 C 13.886,-8.981 10.324,-9.175 7.357,-9.337 L 7.248,-9.343 7.193,-9.251 C 5.165,-5.854 3.26,-3.595 1.972,-2.139 1.333,-1.45 0.845,-0.923 0.486,-0.537 0.14,-0.177 -0.015,-0.004 0,0 c 0.015,0.003 0.205,-0.158 0.553,-0.471 0.351,-0.331 0.883,-0.834 1.553,-1.545 1.338,-1.421 3.3,-3.655 5.393,-7.05 L 7.336,-8.98 c 2.964,0.199 6.522,0.439 10.86,0.732 l 0.198,0.013 0.057,-0.192 c 1.445,-4.88 3.134,-10.579 5.116,-17.269 l 0.075,-0.25 -0.231,-0.129 c -2.937,-1.643 -6.048,-3.382 -9.501,-5.313 l 0.188,0.328 c 0.099,-3.727 -0.25,-7.666 -1.251,-11.778 l -0.123,0.393 c 2.599,-2.289 5.295,-4.663 8.167,-7.192 l 0.254,-0.224 -0.164,-0.298 c -2.728,-4.998 -5.594,-10.247 -8.631,-15.809 l -0.176,-0.322 -0.356,0.102 c -3.397,0.965 -6.877,1.956 -10.465,2.977 l 0.479,0.13 c -2.673,-2.815 -5.78,-5.341 -9.252,-7.44 l 0.239,0.455 c 0.222,-3.558 0.448,-7.179 0.676,-10.866 l 0.026,-0.407 -0.392,-0.114 c -5.62,-1.645 -11.384,-3.331 -17.284,-5.058 l -0.406,-0.119 -0.205,0.37 c -1.739,3.128 -3.5,6.297 -5.289,9.515 l 0.482,-0.276 c -3.923,-0.1 -7.911,0.32 -11.816,1.284 l 0.537,0.168 c -2.378,-2.691 -4.781,-5.409 -7.207,-8.154 l -0.29,-0.329 -0.385,0.212 c -5.191,2.845 -10.458,5.733 -15.796,8.657 l -0.387,0.213 0.121,0.426 c 0.496,1.731 0.994,3.47 1.494,5.216 l 0.751,2.624 0.377,1.314 0.189,0.66 0.094,0.329 0.047,0.164 0.024,0.083 0.011,0.041 0.006,0.02 0.003,0.011 c 0.301,-1.107 0.083,-0.306 0.149,-0.553 l -0.002,0.002 -0.004,0.004 c -2.96,2.813 -5.483,6.031 -7.43,9.268 l 0.507,-0.266 c -3.731,-0.227 -7.435,-0.451 -10.867,-0.66 l -0.44,-0.026 -0.124,0.421 c -1.731,5.95 -3.439,11.819 -5.032,17.294 l -0.121,0.418 0.379,0.21 c 3.287,1.82 6.541,3.622 9.525,5.274 l -0.276,-0.481 c -0.103,4.122 0.399,8.197 1.298,11.811 l 0.162,-0.52 c -2.821,2.501 -5.605,4.971 -8.14,7.219 l -0.309,0.274 0.198,0.361 c 3.014,5.479 5.954,10.824 8.681,15.782 l 0.191,0.346 0.379,-0.109 c 3.64,-1.049 7.215,-2.078 10.456,-3.012 l -0.478,-0.13 c 2.868,3.009 6.106,5.514 9.271,7.41 l -0.22,-0.42 c -0.224,3.798 -0.443,7.504 -0.641,10.868 l -0.021,0.349 0.334,0.097 c 6.071,1.754 11.853,3.426 17.301,5 l 0.304,0.088 0.152,-0.275 c 1.845,-3.346 3.618,-6.564 5.255,-9.536 l -0.327,0.188 c 4.188,0.09 8.157,-0.419 11.76,-1.323 l -0.321,-0.1 c 2.61,2.925 5.049,5.659 7.244,8.119 l 0.151,0.169 0.195,-0.108 c 6.41,-3.565 11.71,-6.512 15.74,-8.754 l 0.125,-0.07 -0.04,-0.134 C 2.162,7.058 1.39,4.473 0.854,2.679 0.591,1.829 0.389,1.173 0.237,0.684 0.095,0.234 0.015,0.004 0,0" /></g><g
           transform="translate(432.7819,286.4982)"
           id="g80"><path
             id="path82"
             style="fill:#ebebeb;fill-opacity:1;fill-rule:nonzero;stroke:none"
             d="m 0,0 -15.692,62.403 63.847,1.055 z" /></g><g
           transform="translate(578.5621,249.1408)"
           id="g84"><path
             id="path86"
             style="fill:#ebebeb;fill-opacity:1;fill-rule:nonzero;stroke:none"
             d="M 0,0 -21.932,-28.902 -138.81,59.79 -116.878,88.692 Z" /></g></g></g><g
       id="g88"><g
         clip-path="url(#clipPath94)"
         id="g90"><g
           transform="translate(655.5172,380.9338)"
           id="g96"><path
             id="path98"
             style="fill:#f5f5f5;fill-opacity:1;fill-rule:nonzero;stroke:none"
             d="m 0,0 c -16.506,23.61 -41.255,42.074 -69.479,47.844 -28.223,5.769 -59.664,-2.316 -79.369,-23.33 -29.69,-31.663 -30.106,-86.221 -66.383,-110.055 -36.413,-23.923 -87.901,-2.639 -127.281,-21.277 -34.438,-16.3 -48.994,-62.401 -34.689,-97.714 9.536,-23.541 24.717,-42.936 47.32,-56.505 16.935,-10.166 36.276,-15.633 56.013,-16.436 l 66.116,-2.691 c 18.243,-0.742 36.531,-0.057 54.627,2.378 34.903,4.698 66.782,14.975 97.612,38.898 35.649,27.661 64.002,65.773 75.72,109.347 C 31.926,-85.966 25.854,-36.981 0,0" /></g><g
           transform="translate(401.5192,379.4489)"
           id="g100"><path
             id="path102"
             style="fill:#f5f5f5;fill-opacity:1;fill-rule:nonzero;stroke:none"
             d="m 0,0 c -2.267,25.55 -24.603,47.833 -50.158,50.04 -1.363,0.809 -25.966,-2.465 -36.422,-9.811 -20.989,-14.744 -29.111,-45.231 -18.238,-68.463 10.873,-23.231 39.486,-36.526 64.254,-29.855 C -15.798,-51.417 2.267,-25.55 0,0" /></g></g></g><g
       id="g104"><g
         clip-path="url(#clipPath110)"
         id="g106"><g
           transform="translate(547.0026,126.9763)"
           id="g112"><path
             id="path114"
             style="fill:#e8505b;fill-opacity:1;fill-rule:nonzero;stroke:none"
             d="m 0,0 8.111,-18.389 c 0,0 -15.967,-14.419 -14.799,-17.964 L 29.53,-21.907 18.069,7.263 Z" /></g><g
           id="g116"><g
             id="g118" /><g
             id="g130"><g
               style="opacity:0.5"
               id="g128"
               clip-path="url(#clipPath122)"><g
                 id="g126"
                 transform="translate(547.0026,126.9763)"><path
                   id="path124"
                   style="fill:#000000;fill-opacity:1;fill-rule:nonzero;stroke:none"
                   d="m 0,0 8.111,-18.389 c 0,0 -15.967,-14.419 -14.799,-17.964 L 29.53,-21.907 18.069,7.263 Z" /></g></g></g></g><g
           transform="translate(576.5328,105.069)"
           id="g132"><path
             id="path134"
             style="fill:#263238;fill-opacity:1;fill-rule:nonzero;stroke:none"
             d="m 0,0 -1.27,2.895 -34.251,-14.932 c 0,0 -1.333,-1.345 -0.698,-2.408 z" /></g><g
           transform="translate(610.7838,100.9284)"
           id="g136"><path
             id="path138"
             style="fill:#e8505b;fill-opacity:1;fill-rule:nonzero;stroke:none"
             d="m 0,0 10.152,-17.345 c 0,0 -14.22,-16.144 -12.656,-19.533 L 31.834,-18.4 17.124,9.274 Z" /></g><g
           id="g140"><g
             id="g142" /><g
             id="g154"><g
               style="opacity:0.5"
               id="g152"
               clip-path="url(#clipPath146)"><g
                 id="g150"
                 transform="translate(610.7838,100.9284)"><path
                   id="path148"
                   style="fill:#000000;fill-opacity:1;fill-rule:nonzero;stroke:none"
                   d="m 0,0 10.152,-17.345 c 0,0 -14.22,-16.144 -12.656,-19.533 L 31.834,-18.4 17.124,9.274 Z" /></g></g></g></g><g
           transform="translate(642.6178,82.528)"
           id="g156"><path
             id="path158"
             style="fill:#263238;fill-opacity:1;fill-rule:nonzero;stroke:none"
             d="m 0,0 -1.592,2.731 -32.327,-18.737 c 0,0 -1.171,-1.487 -0.419,-2.472 z" /></g><g
           transform="translate(566.4772,344.2253)"
           id="g160"><path
             id="path162"
             style="fill:#ffbe9d;fill-opacity:1;fill-rule:nonzero;stroke:none"
             d="m 0,0 -22.257,-1.734 -0.739,12.461 c 0,0 -8.978,0.13 -10.321,8.899 -1.344,8.77 -2.658,29.155 -2.658,29.155 9.554,5.8 21.499,5.974 31.219,0.457 l 1.443,-0.819 z" /></g><g
           transform="translate(543.4489,355.0768)"
           id="g164"><path
             id="path166"
             style="fill:#eb996e;fill-opacity:1;fill-rule:nonzero;stroke:none"
             d="m 0,0 c 0,0 5.615,0.329 10.994,4.865 0,0 -1.946,-6.897 -10.822,-7.338 z" /></g><g
           transform="translate(563.361,383.3932)"
           id="g168"><path
             id="path170"
             style="fill:#ffbe9d;fill-opacity:1;fill-rule:nonzero;stroke:none"
             d="M 0,0 C 0.141,0.086 5.785,2.634 6.437,-3.399 7.09,-9.431 0.898,-8.842 0.869,-8.67 0.841,-8.499 0,0 0,0" /></g><g
           transform="translate(565.8258,377.2077)"
           id="g172"><path
             id="path174"
             style="fill:#eb996e;fill-opacity:1;fill-rule:nonzero;stroke:none"
             d="M 0,0 C 0.024,0.022 0.113,-0.062 0.3,-0.125 0.481,-0.185 0.785,-0.208 1.087,-0.056 1.699,0.247 2.126,1.317 2.038,2.408 1.994,2.958 1.822,3.469 1.581,3.88 1.349,4.302 1.03,4.579 0.703,4.602 0.376,4.641 0.17,4.424 0.114,4.247 0.052,4.069 0.103,3.953 0.072,3.939 0.057,3.922 -0.068,4.026 -0.047,4.28 -0.035,4.403 0.021,4.553 0.149,4.684 0.282,4.817 0.488,4.9 0.714,4.9 1.183,4.918 1.647,4.536 1.913,4.084 2.204,3.632 2.41,3.061 2.459,2.442 2.553,1.222 2.053,0.018 1.208,-0.329 0.796,-0.485 0.428,-0.396 0.229,-0.273 0.026,-0.145 -0.02,-0.013 0,0" /></g><g
           transform="translate(534.2936,379.2023)"
           id="g176"><path
             id="path178"
             style="fill:#263238;fill-opacity:1;fill-rule:nonzero;stroke:none"
             d="m 0,0 c 0.069,-0.666 0.69,-1.155 1.388,-1.095 0.694,0.06 1.203,0.647 1.133,1.313 C 2.451,0.883 1.83,1.374 1.135,1.314 0.438,1.254 -0.07,0.666 0,0" /></g><g
           transform="translate(533.903,380.8825)"
           id="g180"><path
             id="path182"
             style="fill:#263238;fill-opacity:1;fill-rule:nonzero;stroke:none"
             d="M 0,0 C 0.178,-0.142 1.029,0.695 2.38,0.881 3.727,1.086 4.814,0.531 4.937,0.717 4.999,0.801 4.8,1.074 4.324,1.327 3.855,1.58 3.088,1.782 2.248,1.661 1.407,1.538 0.744,1.129 0.382,0.755 0.012,0.378 -0.087,0.062 0,0" /></g><g
           transform="translate(547.4215,380.7214)"
           id="g184"><path
             id="path186"
             style="fill:#263238;fill-opacity:1;fill-rule:nonzero;stroke:none"
             d="M 0,0 C 0.07,-0.666 0.691,-1.155 1.388,-1.095 2.083,-1.036 2.592,-0.448 2.521,0.217 2.452,0.883 1.831,1.374 1.136,1.314 0.439,1.254 -0.069,0.666 0,0" /></g><g
           transform="translate(547.2067,382.4963)"
           id="g188"><path
             id="path190"
             style="fill:#263238;fill-opacity:1;fill-rule:nonzero;stroke:none"
             d="M 0,0 C 0.179,-0.142 1.032,0.695 2.381,0.881 3.728,1.086 4.815,0.531 4.939,0.718 5,0.801 4.803,1.074 4.325,1.327 3.856,1.58 3.09,1.782 2.249,1.661 1.409,1.538 0.745,1.129 0.383,0.755 0.014,0.378 -0.086,0.062 0,0" /></g><g
           transform="translate(543.7155,371.7966)"
           id="g192"><path
             id="path194"
             style="fill:#263238;fill-opacity:1;fill-rule:nonzero;stroke:none"
             d="m 0,0 c -0.004,0.077 -0.864,0.104 -2.248,0.087 -0.35,-0.013 -0.686,0.01 -0.776,0.237 -0.117,0.238 -0.025,0.629 0.086,1.054 0.207,0.879 0.422,1.802 0.65,2.768 0.891,3.936 1.483,7.153 1.324,7.187 C -1.123,11.368 -1.974,8.206 -2.863,4.27 -3.074,3.3 -3.277,2.375 -3.469,1.492 -3.544,1.082 -3.706,0.605 -3.457,0.114 c 0.129,-0.245 0.408,-0.396 0.638,-0.425 0.23,-0.036 0.424,-0.012 0.596,0.001 C -0.844,-0.191 0.006,-0.078 0,0" /></g><g
           transform="translate(547.8199,371.4211)"
           id="g196"><path
             id="path198"
             style="fill:#263238;fill-opacity:1;fill-rule:nonzero;stroke:none"
             d="m 0,0 c -0.222,-0.018 -0.019,-1.484 -1.126,-2.7 -1.105,-1.219 -2.69,-1.275 -2.673,-1.481 -0.008,-0.095 0.388,-0.236 1.049,-0.161 0.65,0.069 1.565,0.409 2.243,1.154 0.676,0.745 0.885,1.642 0.851,2.25 C 0.313,-0.317 0.099,0.022 0,0" /></g><g
           transform="translate(546.1149,387.7375)"
           id="g200"><path
             id="path202"
             style="fill:#263238;fill-opacity:1;fill-rule:nonzero;stroke:none"
             d="M 0,0 C 0.185,-0.349 1.508,0.015 3.118,0.047 4.729,0.111 6.07,-0.173 6.234,0.186 6.307,0.356 6.035,0.67 5.469,0.953 4.907,1.236 4.043,1.458 3.077,1.431 2.111,1.401 1.263,1.127 0.719,0.812 0.17,0.496 -0.082,0.166 0,0" /></g><g
           transform="translate(533.8492,384.8591)"
           id="g204"><path
             id="path206"
             style="fill:#263238;fill-opacity:1;fill-rule:nonzero;stroke:none"
             d="M 0,0 C 0.281,-0.273 1.166,0.176 2.282,0.348 3.393,0.559 4.376,0.432 4.549,0.784 4.623,0.953 4.431,1.239 3.976,1.471 3.527,1.703 2.813,1.843 2.047,1.712 1.282,1.58 0.655,1.208 0.311,0.839 -0.04,0.469 -0.126,0.135 0,0" /></g><g
           transform="translate(525.443,397.9499)"
           id="g208"><path
             id="path210"
             style="fill:#263238;fill-opacity:1;fill-rule:nonzero;stroke:none"
             d="m 0,0 c -0.247,1.075 -0.006,2.301 0.79,3.065 0.796,0.765 2.176,0.917 3.012,0.196 -0.619,1.409 0.343,3.27 1.849,3.58 1.42,0.292 2.794,-0.618 4.232,-0.803 1.403,-0.181 2.808,0.344 4.035,1.05 1.226,0.706 2.34,1.6 3.588,2.266 2.604,1.388 5.761,1.704 8.589,0.858 2.827,-0.846 5.292,-2.843 6.706,-5.434 1.836,0.87 4.156,0.202 5.57,-1.258 1.413,-1.461 2.018,-3.556 2.063,-5.588 0.031,-1.373 -0.176,-2.733 -0.451,-4.083 0.017,-0.113 0.043,-0.222 0.058,-0.335 0.588,-4.844 0.84,-10.593 -1.217,-10.914 -3.584,-0.56 -3.679,6.327 -3.679,6.327 -4.648,1.083 -3.935,7.919 -5.178,8.765 C 28.725,-1.46 26.091,0.543 17.525,-5.471 14.199,-7.807 9.427,-8.419 6.742,-8.195 6.664,-8.189 6.585,-8.188 6.507,-8.181 6.49,-8.179 6.468,-8.179 6.451,-8.177 6.422,-8.174 6.399,-8.162 6.371,-8.157 5.512,-8.058 4.667,-7.85 3.863,-7.486 2.952,-7.075 2.092,-6.465 1.607,-5.592 1.123,-4.718 1.094,-3.546 1.725,-2.771 0.923,-2.012 0.247,-1.076 0,0" /></g><g
           transform="translate(543.4489,347.3166)"
           id="g212"><path
             id="path214"
             style="fill:#ebebeb;fill-opacity:1;fill-rule:nonzero;stroke:none"
             d="M 0,0 0.993,-34.873 22.69,11.838 22.147,16.162 Z" /></g><g
           transform="translate(557.8444,243.0671)"
           id="g216"><path
             id="path218"
             style="fill:#263238;fill-opacity:1;fill-rule:nonzero;stroke:none"
             d="m 0,0 c -0.796,-0.26 -45.972,-45.948 -44.956,-54.155 1.015,-8.206 33.174,-68.984 33.174,-68.984 l 22.944,11.313 -21.523,53.282 0.281,3.306 26.305,21.554 -1.406,34.664 z" /></g><g
           transform="translate(567.5846,234.0632)"
           id="g220"><path
             id="path222"
             style="fill:#263238;fill-opacity:1;fill-rule:nonzero;stroke:none"
             d="m 0,0 c 0.525,-0.796 8.349,-72.573 10.445,-76.288 2.097,-3.715 33.521,-64.991 33.521,-64.991 l 23.33,9.4 -28.482,67.347 3.246,63.74 L 40.303,17.207 5.079,9.984 Z" /></g><g
           transform="translate(577.6207,159.0388)"
           id="g224"><path
             id="path226"
             style="fill:#455a64;fill-opacity:1;fill-rule:nonzero;stroke:none"
             d="m 0,0 c -0.018,-0.003 -0.069,0.245 -0.152,0.718 -0.086,0.521 -0.199,1.211 -0.34,2.072 -0.281,1.857 -0.674,4.452 -1.156,7.636 -0.936,6.501 -2.214,15.393 -3.627,25.217 -1.358,9.835 -2.585,18.735 -3.484,25.241 -0.416,3.193 -0.755,5.796 -0.998,7.657 -0.102,0.867 -0.184,1.561 -0.246,2.086 -0.051,0.477 -0.069,0.729 -0.052,0.731 0.017,0.003 0.069,-0.244 0.152,-0.717 0.086,-0.521 0.198,-1.21 0.34,-2.073 0.281,-1.856 0.673,-4.451 1.156,-7.634 C -7.472,54.433 -6.192,45.54 -4.779,35.712 -3.423,25.88 -2.194,16.98 -1.297,10.475 -0.881,7.281 -0.541,4.679 -0.299,2.817 -0.196,1.949 -0.114,1.256 -0.052,0.731 -0.001,0.254 0.017,0.002 0,0" /></g><g
           transform="translate(605.8063,171.5895)"
           id="g228"><path
             id="path230"
             style="fill:#455a64;fill-opacity:1;fill-rule:nonzero;stroke:none"
             d="m 0,0 c 0.134,-0.037 -0.474,-2.584 -1.355,-5.687 -0.883,-3.105 -1.707,-5.589 -1.84,-5.551 -0.133,0.037 0.474,2.584 1.356,5.688 C -0.956,-2.447 -0.133,0.038 0,0" /></g><g
           transform="translate(609.3356,155.3337)"
           id="g232"><path
             id="path234"
             style="fill:#455a64;fill-opacity:1;fill-rule:nonzero;stroke:none"
             d="m 0,0 c -0.046,-0.034 -0.598,0.599 -1.273,1.771 -0.677,1.167 -1.43,2.903 -1.866,4.928 -0.428,2.029 -0.449,3.92 -0.307,5.262 0.138,1.347 0.384,2.148 0.44,2.137 0.168,-0.013 -0.515,-3.323 0.359,-7.294 C -1.825,2.824 0.147,0.079 0,0" /></g><g
           transform="translate(539.9586,192.2546)"
           id="g236"><path
             id="path238"
             style="fill:#455a64;fill-opacity:1;fill-rule:nonzero;stroke:none"
             d="M 0,0 C 0.046,0.117 1.933,-0.667 3.767,-2.351 5.611,-4.021 6.565,-5.829 6.453,-5.886 6.327,-5.969 5.215,-4.337 3.429,-2.721 1.656,-1.092 -0.072,-0.134 0,0" /></g><g
           transform="translate(543.4996,194.3747)"
           id="g240"><path
             id="path242"
             style="fill:#455a64;fill-opacity:1;fill-rule:nonzero;stroke:none"
             d="M 0,0 C 0.091,0.095 1.242,-0.923 2.225,-2.523 3.216,-4.119 3.61,-5.604 3.485,-5.643 3.349,-5.692 2.757,-4.329 1.798,-2.787 0.849,-1.239 -0.106,-0.1 0,0" /></g><g
           transform="translate(546.6188,299.0861)"
           id="g244"><path
             id="path246"
             style="fill:#e8505b;fill-opacity:1;fill-rule:nonzero;stroke:none"
             d="m 0,0 5.775,-28.651 4.701,-39.982 c 0,0 19.376,2.705 27.633,5.319 9.579,3.032 30.419,5.614 30.419,5.614 l -3.512,-3.476 c 7.456,2.088 12.204,9.204 12.204,9.204 -12.853,11.92 -23.816,36.441 -23.816,36.441 l -9.773,48.523 c 0,0 -1.484,6.845 -2.379,9.889 -0.896,3.044 -15.735,12.863 -17.792,14.103 l -1.292,0.612 -0.412,3.889 -1.528,0.914 L 4.167,47.81 C 1.046,44.969 -0.945,41.099 -1.422,36.906 -1.924,32.484 -2.374,26.143 -2.122,18.653 -1.931,12.968 0,0 0,0" /></g><g
           transform="translate(557.6442,348.7189)"
           id="g248"><path
             id="path250"
             style="fill:#e8505b;fill-opacity:1;fill-rule:nonzero;stroke:none"
             d="m 0,0 c 0,0 -8.485,-4.548 -9.956,-8.409 -1.471,-3.86 2.903,-46.184 2.903,-46.184 l -30.468,-0.572 -0.095,-18.155 c 0,0 48.395,-3.824 50.279,-1.207 2.546,3.537 5.505,36.609 5.505,36.609 l 1.099,23.795 C 19.267,-14.123 16.461,4.023 0,0" /></g><g
           id="g252"><g
             id="g254" /><g
             id="g266"><g
               style="opacity:0.30000299"
               id="g264"
               clip-path="url(#clipPath258)"><g
                 id="g262"
                 transform="translate(552.3942,270.4348)"><path
                   id="path260"
                   style="fill:#000000;fill-opacity:1;fill-rule:nonzero;stroke:none"
                   d="m 0,0 c 4.102,-1.326 7.903,-1.539 12.195,-1.14 4.291,0.399 8.659,2.748 10.281,6.741 1.242,3.057 0.724,6.503 0.912,9.798 0.164,2.862 0.873,5.662 1.305,8.496 0.432,2.834 -1.037,8.044 -1.972,10.754 0,0 -1.087,-19.646 -4.16,-27.895 C 18.143,5.63 17.611,4.494 16.678,3.742 15.59,2.867 14.083,2.79 12.694,2.645 8.808,2.239 -0.571,2.913 -0.571,2.913" /></g></g></g></g><g
           transform="translate(576.859,332.0251)"
           id="g268"><path
             id="path270"
             style="fill:#263238;fill-opacity:1;fill-rule:nonzero;stroke:none"
             d="m 0,0 c 0.009,0 0.009,-0.146 0.001,-0.432 -0.012,-0.307 -0.027,-0.727 -0.048,-1.264 -0.056,-1.137 -0.134,-2.769 -0.234,-4.861 -0.112,-2.118 -0.246,-4.698 -0.404,-7.689 -0.182,-2.996 -0.282,-6.415 -0.649,-10.177 -0.328,-3.764 -0.723,-7.884 -1.194,-12.302 -0.492,-4.417 -1.015,-9.136 -1.855,-14.073 -0.239,-1.233 -0.429,-2.477 -0.837,-3.732 -0.419,-1.238 -1.147,-2.425 -2.197,-3.291 -1.035,-0.847 -2.407,-1.45 -3.791,-1.354 -1.344,-0.03 -2.69,0.005 -4.052,0.021 -5.438,0.134 -11.059,0.413 -16.815,0.725 -8.649,0.478 -16.984,1.017 -24.773,1.564 l -0.224,0.016 0.002,0.224 c 0.038,6.448 0.075,12.523 0.108,18.126 l 0.002,0.209 0.208,0.005 c 12.166,0.262 22.295,0.479 29.408,0.632 3.527,0.061 6.305,0.11 8.228,0.143 0.929,0.009 1.652,0.016 2.166,0.021 0.49,10e-4 0.744,-0.016 0.744,-0.016 0,0 -0.253,-0.029 -0.742,-0.052 -0.514,-0.02 -1.236,-0.048 -2.165,-0.085 -1.922,-0.061 -4.699,-0.149 -8.224,-0.261 -7.113,-0.197 -17.24,-0.476 -29.404,-0.812 l 0.21,0.214 c -0.019,-5.603 -0.039,-11.678 -0.061,-18.126 l -0.222,0.24 c 7.787,-0.532 16.122,-1.064 24.766,-1.541 5.753,-0.312 11.372,-0.594 16.8,-0.735 1.355,-0.018 2.702,-0.054 4.025,-0.026 1.303,-0.096 2.529,0.457 3.501,1.238 0.971,0.799 1.656,1.899 2.057,3.075 0.387,1.179 0.589,2.445 0.826,3.66 0.85,4.909 1.389,9.627 1.897,14.036 0.49,4.413 0.904,8.529 1.255,12.289 0.389,3.757 0.513,7.173 0.723,10.165 0.19,2.988 0.353,5.565 0.487,7.682 0.142,2.088 0.252,3.719 0.329,4.854 0.042,0.536 0.074,0.955 0.098,1.261 C -0.025,-0.145 -0.009,0 0,0" /></g><g
           transform="translate(526.0084,275.6662)"
           id="g272"><path
             id="path274"
             style="fill:#263238;fill-opacity:1;fill-rule:nonzero;stroke:none"
             d="m 0,0 c -0.139,0.001 -0.229,3.943 -0.204,8.804 0.025,4.863 0.158,8.803 0.297,8.802 C 0.231,17.605 0.323,13.664 0.298,8.801 0.271,3.94 0.139,0 0,0" /></g><g
           transform="translate(522.778,290.5143)"
           id="g276"><path
             id="path278"
             style="fill:#263238;fill-opacity:1;fill-rule:nonzero;stroke:none"
             d="M 0,0 C -0.059,0.033 0.246,0.372 0.824,0.18 1.091,0.095 1.415,-0.202 1.442,-0.626 1.477,-1.027 1.278,-1.497 0.823,-1.714 c -0.46,-0.2 -0.94,-0.047 -1.225,0.225 -0.306,0.282 -0.36,0.691 -0.297,0.96 0.137,0.574 0.537,0.697 0.551,0.638 0.047,-0.056 -0.191,-0.269 -0.2,-0.682 -0.003,-0.2 0.066,-0.426 0.253,-0.571 0.182,-0.15 0.485,-0.217 0.711,-0.113 0.225,0.1 0.369,0.376 0.364,0.604 0.005,0.232 -0.134,0.409 -0.304,0.51 C 0.325,0.066 0.031,-0.065 0,0" /></g><g
           transform="translate(590.3844,327.9201)"
           id="g280"><path
             id="path282"
             style="fill:#e8505b;fill-opacity:1;fill-rule:nonzero;stroke:none"
             d="m 0,0 c 0,0 15.852,-20.726 17.782,-26.374 1.932,-5.648 0.44,-13.757 -2.789,-17.634 -3.228,-3.878 -5.831,-2.302 -5.831,-2.302 z" /></g><g
           transform="translate(598.9791,283.2741)"
           id="g284"><path
             id="path286"
             style="fill:#263238;fill-opacity:1;fill-rule:nonzero;stroke:none"
             d="m 0,0 c 0.023,-0.137 -1.756,-0.556 -3.973,-0.936 -2.217,-0.381 -4.034,-0.578 -4.057,-0.441 -0.024,0.136 1.755,0.555 3.972,0.936 C -1.841,-0.061 -0.023,0.137 0,0" /></g><g
           transform="translate(602.026,267.9929)"
           id="g288"><path
             id="path290"
             style="fill:#263238;fill-opacity:1;fill-rule:nonzero;stroke:none"
             d="m 0,0 c 0.033,0.009 0.185,-0.381 0.431,-1.094 0.24,-0.714 0.604,-1.742 1.074,-3.003 0.935,-2.524 2.376,-5.955 4.258,-9.605 1.887,-3.647 3.841,-6.816 5.325,-9.063 0.74,-1.125 1.35,-2.029 1.778,-2.65 0.424,-0.623 0.647,-0.979 0.618,-0.999 -0.027,-0.021 -0.301,0.295 -0.775,0.884 -0.477,0.587 -1.134,1.462 -1.914,2.565 -1.565,2.205 -3.579,5.363 -5.479,9.033 -1.892,3.672 -3.292,7.15 -4.145,9.716 -0.43,1.282 -0.744,2.331 -0.928,3.065 C 0.055,-0.418 -0.033,-0.01 0,0" /></g><g
           id="g292"><g
             id="g294" /><g
             id="g306"><g
               style="opacity:0.30000299"
               id="g304"
               clip-path="url(#clipPath298)"><g
                 id="g302"
                 transform="translate(603.1031,265.5373)"><path
                   id="path300"
                   style="fill:#000000;fill-opacity:1;fill-rule:nonzero;stroke:none"
                   d="m 0,0 c 2.512,-4.477 5.094,-9.042 8.921,-12.463 1.35,-1.208 2.862,-2.281 3.892,-3.771 1.031,-1.491 1.476,-3.576 0.498,-5.101 -0.346,-0.538 -0.958,-1.001 -1.581,-0.854 -0.441,0.104 -0.756,0.481 -1.035,0.839 -4.771,6.141 -8.363,13.195 -10.524,20.665" /></g></g></g></g><g
           id="g308"><g
             id="g310" /><g
             id="g322"><g
               style="opacity:0.30000299"
               id="g320"
               clip-path="url(#clipPath314)"><g
                 id="g318"
                 transform="translate(601.0104,281.6877)"><path
                   id="path316"
                   style="fill:#000000;fill-opacity:1;fill-rule:nonzero;stroke:none"
                   d="m 0,0 c 2.171,1.559 2.93,4.525 2.608,7.178 -0.322,2.653 -1.534,5.101 -2.632,7.537 -3.406,7.557 -5.706,14.391 -7.72,22.643 l -1.55,5.749 7.842,-41.02 z" /></g></g></g></g><g
           transform="translate(561.7701,350.5607)"
           id="g324"><path
             id="path326"
             style="fill:#263238;fill-opacity:1;fill-rule:nonzero;stroke:none"
             d="M 0,0 C -0.089,0.115 1.335,1.326 2.954,2.952 4.58,4.572 5.79,5.995 5.905,5.906 6.012,5.829 4.962,4.245 3.309,2.597 1.661,0.943 0.077,-0.107 0,0" /></g><g
           transform="translate(560.1676,347.049)"
           id="g328"><path
             id="path330"
             style="fill:#263238;fill-opacity:1;fill-rule:nonzero;stroke:none"
             d="m 0,0 c 0.025,-0.084 -0.915,-0.367 -2.317,-1.061 -1.403,-0.688 -3.239,-1.862 -4.918,-3.554 -1.672,-1.699 -2.826,-3.55 -3.496,-4.96 -0.678,-1.411 -0.949,-2.354 -1.034,-2.33 -0.033,0.009 0.007,0.251 0.11,0.686 0.094,0.435 0.296,1.051 0.599,1.789 0.602,1.478 1.743,3.419 3.464,5.168 1.728,1.741 3.655,2.904 5.125,3.523 0.735,0.313 1.348,0.522 1.782,0.621 C -0.251,-0.01 -0.01,0.033 0,0" /></g><g
           transform="translate(602.7389,277.5646)"
           id="g332"><path
             id="path334"
             style="fill:#263238;fill-opacity:1;fill-rule:nonzero;stroke:none"
             d="m 0,0 c -0.015,-0.007 -0.1,0.129 -0.249,0.398 -0.17,0.319 -0.38,0.711 -0.635,1.189 -0.567,1.109 -1.336,2.614 -2.281,4.463 l -0.009,0.018 -0.005,0.023 c -0.991,4.542 -2.393,11.166 -3.918,18.534 -1.408,6.944 -2.681,13.226 -3.621,17.861 -0.428,2.237 -0.781,4.073 -1.04,5.425 -0.104,0.596 -0.189,1.086 -0.259,1.48 -0.053,0.339 -0.073,0.519 -0.055,0.523 0.016,0.003 0.069,-0.17 0.155,-0.503 0.093,-0.389 0.209,-0.871 0.351,-1.461 0.297,-1.344 0.703,-3.168 1.196,-5.392 0.977,-4.627 2.301,-10.899 3.765,-17.831 C -5.081,17.359 -3.74,10.722 -2.848,6.16 L -2.861,6.2 C -1.973,4.322 -1.25,2.795 -0.718,1.669 -0.495,1.175 -0.312,0.77 -0.163,0.44 -0.042,0.158 0.015,0.007 0,0" /></g><g
           transform="translate(550.0651,294.1423)"
           id="g336"><path
             id="path338"
             style="fill:#263238;fill-opacity:1;fill-rule:nonzero;stroke:none"
             d="m 0,0 c -0.034,-0.003 -0.115,0.532 -0.231,1.501 -0.116,1.061 -0.266,2.445 -0.448,4.113 -0.355,3.475 -0.811,8.279 -1.285,13.588 -0.474,5.31 -0.875,10.119 -1.14,13.602 -0.117,1.674 -0.213,3.062 -0.288,4.126 -0.056,0.975 -0.072,1.515 -0.037,1.518 0.034,0.002 0.116,-0.533 0.232,-1.503 0.115,-1.06 0.265,-2.445 0.447,-4.113 0.355,-3.476 0.813,-8.279 1.286,-13.587 C -0.991,13.938 -0.59,9.13 -0.325,5.647 -0.208,3.973 -0.111,2.584 -0.037,1.52 0.02,0.544 0.035,0.003 0,0" /></g><g
           transform="translate(520.5055,291.4304)"
           id="g340"><path
             id="path342"
             style="fill:#ffbe9d;fill-opacity:1;fill-rule:nonzero;stroke:none"
             d="m 0,0 c 0,0 -6.571,4.985 -8.175,5.285 -1.227,0.231 -8.561,0.109 -11.934,0.038 -1.297,-0.027 -2.436,-1.046 -2.42,-2.342 0.001,-0.084 0.008,-0.164 0.022,-0.239 0.265,-1.368 1.604,-1.666 1.604,-1.666 0,0 -1.748,-0.501 -1.777,-2.406 -0.027,-1.904 2.278,-2.305 2.278,-2.305 0,0 -0.138,-0.101 -0.329,-0.293 -1.26,-1.257 -0.621,-3.418 1.115,-3.812 l 1.039,-0.237 c 0,0 -1.405,-0.585 -1.386,-1.891 0.038,-2.507 5.675,-2.987 5.675,-2.987 0,0 13.931,-2.205 14.231,-2.105 C 0.244,-14.86 0,0 0,0" /></g><g
           transform="translate(501.692,299.718)"
           id="g344"><path
             id="path346"
             style="fill:#ffbe9d;fill-opacity:1;fill-rule:nonzero;stroke:none"
             d="m 0,0 c 0.062,-0.826 0.256,-2.583 1.661,-3.381 l 7.764,0.304 c 0,0 -5.781,1.995 -6.604,2.981 C 2.533,0.25 2.136,0.678 1.713,0.988 0.977,1.527 -0.067,0.91 0,0" /></g><g
           transform="translate(507.4645,296.7175)"
           id="g348"><path
             id="path350"
             style="fill:#eb996e;fill-opacity:1;fill-rule:nonzero;stroke:none"
             d="M 0,0 C 0.003,-0.135 -1.585,-0.287 -3.545,-0.251 -5.496,-0.215 -7.079,-0.143 -7.083,0 -7.086,0.135 -5.498,0.287 -3.537,0.25 -1.587,0.215 -0.004,0.142 0,0" /></g><g
           transform="translate(505.7203,292.3835)"
           id="g352"><path
             id="path354"
             style="fill:#eb996e;fill-opacity:1;fill-rule:nonzero;stroke:none"
             d="m 0,0 c 0.014,-0.134 -1.355,-0.376 -3.061,-0.312 -1.706,0.058 -3.054,0.396 -3.031,0.528 0.024,0.141 1.38,0.03 3.049,-0.027 C -1.374,0.127 -0.013,0.142 0,0" /></g><g
           transform="translate(509.6696,292.9362)"
           id="g356"><path
             id="path358"
             style="fill:#eb996e;fill-opacity:1;fill-rule:nonzero;stroke:none"
             d="m 0,0 c 0.115,-0.071 -0.033,-0.494 -0.472,-0.776 -0.438,-0.285 -0.884,-0.248 -0.902,-0.114 -0.024,0.14 0.288,0.309 0.629,0.535 C -0.399,-0.136 -0.117,0.08 0,0" /></g><g
           transform="translate(506.5748,287.465)"
           id="g360"><path
             id="path362"
             style="fill:#eb996e;fill-opacity:1;fill-rule:nonzero;stroke:none"
             d="m 0,0 c -0.011,-0.138 -1.509,-0.202 -3.346,-0.141 -1.837,0.06 -3.327,0.222 -3.328,0.36 -0.002,0.139 1.496,0.202 3.345,0.141 C -1.48,0.3 0.01,0.138 0,0" /></g><g
           transform="translate(511.0114,289.5402)"
           id="g364"><path
             id="path366"
             style="fill:#eb996e;fill-opacity:1;fill-rule:nonzero;stroke:none"
             d="m 0,0 c 0.062,0.018 0.183,-0.139 0.22,-0.444 0.039,-0.299 -0.034,-0.75 -0.335,-1.134 -0.302,-0.383 -0.725,-0.56 -1.024,-0.593 -0.305,-0.036 -0.485,0.045 -0.483,0.109 -0.004,0.137 0.669,0.224 1.112,0.794 C -0.06,-0.703 -0.134,-0.029 0,0" /></g><g
           transform="translate(507.7467,282.6491)"
           id="g368"><path
             id="path370"
             style="fill:#eb996e;fill-opacity:1;fill-rule:nonzero;stroke:none"
             d="m 0,0 c -0.017,-0.138 -1.368,-0.084 -3.018,0.12 -1.65,0.204 -2.974,0.481 -2.957,0.619 0.017,0.137 1.369,0.083 3.019,-0.121 C -1.307,0.414 0.017,0.137 0,0" /></g><g
           transform="translate(512.0787,285.0974)"
           id="g372"><path
             id="path374"
             style="fill:#eb996e;fill-opacity:1;fill-rule:nonzero;stroke:none"
             d="M 0,0 C 0.064,0.009 0.16,-0.162 0.151,-0.462 0.146,-0.76 0.01,-1.166 -0.265,-1.517 -0.833,-2.205 -1.471,-2.454 -1.542,-2.36 c -0.1,0.119 0.412,0.574 0.881,1.151 C -0.184,-0.63 -0.129,-0.023 0,0" /></g><g
           transform="translate(608.9977,237.4909)"
           id="g376"><path
             id="path378"
             style="fill:#e8505b;fill-opacity:1;fill-rule:nonzero;stroke:none"
             d="M 0,0 C 2.743,0.244 5.328,1.872 6.732,4.241 6.892,4.51 7.028,4.876 6.82,5.108 6.681,5.266 6.444,5.282 6.233,5.285 4.064,5.305 1.893,4.933 -0.146,4.191 -0.377,4.106 -0.632,3.994 -0.718,3.763 -0.78,3.596 -0.736,3.41 -0.691,3.237 -0.418,2.186 -0.146,1.135 0.128,0.083" /></g><g
           id="g380"><g
             id="g382" /><g
             id="g394"><g
               style="opacity:0.39999402"
               id="g392"
               clip-path="url(#clipPath386)"><g
                 id="g390"
                 transform="translate(608.9977,237.4909)"><path
                   id="path388"
                   style="fill:#000000;fill-opacity:1;fill-rule:nonzero;stroke:none"
                   d="M 0,0 C 2.743,0.244 5.328,1.872 6.732,4.241 6.892,4.51 7.028,4.876 6.82,5.108 6.681,5.266 6.444,5.282 6.233,5.285 4.064,5.305 1.893,4.933 -0.146,4.191 -0.377,4.106 -0.632,3.994 -0.718,3.763 -0.78,3.596 -0.736,3.41 -0.691,3.237 -0.418,2.186 -0.146,1.135 0.128,0.083" /></g></g></g></g><g
           transform="translate(543.4489,347.3166)"
           id="g396"><path
             id="path398"
             style="fill:#ebebeb;fill-opacity:1;fill-rule:nonzero;stroke:none"
             d="m 0,0 c 0,0 -3.196,-10.729 -2.315,-10.119 0.88,0.61 2.791,2.304 2.791,2.304 z" /></g><g
           transform="translate(543.6334,342.3703)"
           id="g400"><path
             id="path402"
             style="fill:#263238;fill-opacity:1;fill-rule:nonzero;stroke:none"
             d="m 0,0 -1.748,-4.177 c -0.168,-0.436 -0.28,-0.885 -0.338,-1.349 -0.144,-1.171 -0.311,-3.315 0.385,-3.465 0.962,-0.206 1.869,0.773 1.869,0.773 z" /></g><g
           transform="translate(597.8336,341.7111)"
           id="g404"><path
             id="path406"
             style="fill:#263238;fill-opacity:1;fill-rule:nonzero;stroke:none"
             d="m 0,0 c 0,0 -17.096,6.67 -26.562,0.78 -9.466,-5.89 -11.191,-15.289 -16.829,-15.289 -10.994,0 -10.641,7.758 -10.641,7.758 l -2.337,-0.708 c -0.046,-1.587 -2.549,-12.984 9.037,-14.396 11.586,-1.414 16.455,14.381 26.878,14.396 10.423,0.015 18.335,-5.637 18.335,-5.637 l 7.488,4.736 z" /></g><g
           transform="translate(553.9664,320.0436)"
           id="g408"><path
             id="path410"
             style="fill:#455a64;fill-opacity:1;fill-rule:nonzero;stroke:none"
             d="m 0,0 c 0,0 4.263,2.185 6.595,7.567 2.655,6.127 8.357,13.123 13.117,14.881 4.761,1.757 15.775,2.984 23.383,-1.974 l 4.872,-6.582 -6.325,-4.103 c 0,0 -5,2.747 -11.147,4.463 C 22.633,16.448 17.854,13.968 13.283,9.642 12.999,9.373 12.738,9.107 12.511,8.849 11.357,7.54 8.169,4.506 5.274,2.442 3.038,0.848 1.018,-0.018 0,0" /></g></g></g><g
       id="g412"><g
         clip-path="url(#clipPath418)"
         id="g414"><g
           transform="translate(199.9738,413.1252)"
           id="g420"><path
             id="path422"
             style="fill:#e8505b;fill-opacity:1;fill-rule:nonzero;stroke:none"
             d="m 0,0 c -10.14,-1.562 -17.574,6.955 -19.944,14.539 -2.188,7 -3.229,14.283 -6.304,20.941 -4.296,9.306 -15.677,13.606 -25.89,12.746 -10.214,-0.86 -20.506,-5.978 -29.543,-10.815 l 2.493,-56.017 c 0,0 19.679,20.955 29.135,21.336 15.777,0.638 14.917,-25.296 30.238,-29.125 0,0 21.479,-5.823 35.999,12.933 C 25.4,-1.559 26.216,12.902 26.216,12.902 26.216,12.902 19.157,2.951 0,0" /></g><g
           transform="translate(117.8795,459.8298)"
           id="g424"><path
             id="path426"
             style="fill:#263238;fill-opacity:1;fill-rule:nonzero;stroke:none"
             d="m 0,0 c 0.138,0.006 2.898,-59.479 6.163,-132.845 3.266,-73.393 5.8,-132.874 5.662,-132.881 -0.138,-0.005 -2.897,59.466 -6.163,132.858 C 2.396,-59.501 -0.139,-0.006 0,0" /></g><g
           id="g428"><g
             id="g430" /><g
             id="g442"><g
               style="opacity:0.19999701"
               id="g440"
               clip-path="url(#clipPath434)"><g
                 id="g438"
                 transform="translate(172.0397,431.5388)"><path
                   id="path436"
                   style="fill:#000000;fill-opacity:1;fill-rule:nonzero;stroke:none"
                   d="m 0,0 c 1.399,-5.242 4.537,-12.241 7.458,-16.814 2.92,-4.573 7.35,-8.423 12.661,-9.53 0.961,-0.201 1.956,-0.315 2.842,-0.739 0.886,-0.422 1.664,-1.247 1.692,-2.228 0.041,-1.467 -1.475,-2.427 -2.792,-3.076 -1.873,-0.923 -3.776,-1.856 -5.828,-2.24 -2.053,-0.384 -3.661,-0.597 -5.071,0.943 -1.187,1.299 -2.766,2.86 -3.667,4.394 C 2.666,-21.402 0.376,-10.121 0,-1.196" /></g></g></g></g><g
           transform="translate(185.7521,395.5671)"
           id="g444"><path
             id="path446"
             style="fill:#263238;fill-opacity:1;fill-rule:nonzero;stroke:none"
             d="m 0,0 c -0.01,-0.014 -0.166,0.075 -0.456,0.26 -0.289,0.186 -0.701,0.481 -1.211,0.89 -1.008,0.826 -2.385,2.151 -3.74,4.063 -1.365,1.901 -2.673,4.388 -3.744,7.283 -1.08,2.895 -1.965,6.168 -2.773,9.626 -1.614,6.925 -2.326,13.343 -2.584,17.986 -0.13,2.324 -0.151,4.207 -0.149,5.507 0.013,0.604 0.024,1.098 0.033,1.497 0.014,0.343 0.029,0.522 0.046,0.522 0.018,0 0.036,-0.179 0.055,-0.521 0.016,-0.398 0.036,-0.892 0.061,-1.494 0.058,-1.298 0.134,-3.174 0.308,-5.487 0.348,-4.623 1.113,-11.003 2.718,-17.898 0.806,-3.442 1.674,-6.706 2.718,-9.578 1.037,-2.875 2.293,-5.341 3.602,-7.24 C -3.817,3.505 -2.499,2.162 -1.54,1.298 -0.57,0.442 0.025,0.036 0,0" /></g></g></g><g
       transform="translate(56.736,182.278)"
       id="g448"><path
         id="path450"
         style="fill:#e0e0e0;fill-opacity:1;fill-rule:nonzero;stroke:none"
         d="M 0,0 133.972,-21.933 V 0 Z" /></g><g
       transform="translate(212.8234,132.7321)"
       id="g452"><path
         id="path454"
         style="fill:#e0e0e0;fill-opacity:1;fill-rule:nonzero;stroke:none"
         d="M 0,0 133.972,-21.932 V 0 Z" /></g><g
       transform="translate(367.8356,85.3386)"
       id="g456"><path
         id="path458"
         style="fill:#e0e0e0;fill-opacity:1;fill-rule:nonzero;stroke:none"
         d="M 0,0 133.972,-21.933 V 0 Z" /></g><g
       transform="translate(522.6432,47.6237)"
       id="g460"><path
         id="path462"
         style="fill:#e0e0e0;fill-opacity:1;fill-rule:nonzero;stroke:none"
         d="M 0,0 133.971,-21.933 V 0 Z" /></g><path
       id="path464"
       style="fill:#e8505b;fill-opacity:1;fill-rule:nonzero;stroke:none"
       d="M 190.708,182.278 H 56.736 v 16.427 h 133.972 z" /><g
       id="g466"><g
         clip-path="url(#clipPath472)"
         id="g468"><g
           id="g474"><g
             id="g476" /><g
             id="g486"><g
               style="opacity:0.30000299"
               id="g484"
               clip-path="url(#clipPath480)"><path
                 id="path482"
                 style="fill:#000000;fill-opacity:1;fill-rule:nonzero;stroke:none"
                 d="m 190.708,182.278 h -41.806 v 16.427 h 41.806 z" /></g></g></g></g></g><path
       id="path488"
       style="fill:#e8505b;fill-opacity:1;fill-rule:nonzero;stroke:none"
       d="M 346.795,132.732 H 212.823 v 16.428 h 133.972 z" /><g
       id="g490"><g
         clip-path="url(#clipPath496)"
         id="g492"><g
           id="g498"><g
             id="g500" /><g
             id="g510"><g
               style="opacity:0.30000299"
               id="g508"
               clip-path="url(#clipPath504)"><path
                 id="path506"
                 style="fill:#000000;fill-opacity:1;fill-rule:nonzero;stroke:none"
                 d="m 346.795,132.732 h -41.806 v 16.428 h 41.806 z" /></g></g></g></g></g><path
       id="path512"
       style="fill:#e8505b;fill-opacity:1;fill-rule:nonzero;stroke:none"
       d="M 501.807,85.339 H 367.835 v 16.427 h 133.972 z" /><g
       id="g514"><g
         clip-path="url(#clipPath520)"
         id="g516"><g
           id="g522"><g
             id="g524" /><g
             id="g534"><g
               style="opacity:0.30000299"
               id="g532"
               clip-path="url(#clipPath528)"><path
                 id="path530"
                 style="fill:#000000;fill-opacity:1;fill-rule:nonzero;stroke:none"
                 d="M 501.807,85.339 H 460 v 16.427 h 41.807 z" /></g></g></g></g></g><path
       id="path536"
       style="fill:#e8505b;fill-opacity:1;fill-rule:nonzero;stroke:none"
       d="M 656.819,47.624 H 522.847 v 16.427 h 133.972 z" /><g
       id="g538"><g
         clip-path="url(#clipPath544)"
         id="g540"><g
           id="g546"><g
             id="g548" /><g
             id="g558"><g
               style="opacity:0.30000299"
               id="g556"
               clip-path="url(#clipPath552)"><path
                 id="path554"
                 style="fill:#000000;fill-opacity:1;fill-rule:nonzero;stroke:none"
                 d="m 656.819,47.624 h -41.806 v 16.427 h 41.806 z" /></g></g></g><g
           transform="translate(574.2555,123.8434)"
           id="g560"><path
             id="path562"
             style="fill:#ebebeb;fill-opacity:1;fill-rule:nonzero;stroke:none"
             d="m 0,0 c 0,-2.012 1.632,-3.644 3.644,-3.644 2.012,0 3.643,1.632 3.643,3.644 0,2.012 -1.631,3.644 -3.643,3.644 C 1.632,3.644 0,2.012 0,0" /></g></g></g></g></svg>