<?xml version="1.0" encoding="iso-8859-1"?>
<!-- Generator: Adobe Illustrator 19.0.0, SVG Export Plug-In . SVG Version: 6.00 Build 0)  -->
<svg version="1.1" id="Capa_1" xmlns="http://www.w3.org/2000/svg" xmlns:xlink="http://www.w3.org/1999/xlink" x="0px" y="0px"
	 viewBox="0 0 512 512" style="enable-background:new 0 0 512 512;" xml:space="preserve">
<g>
	<g>
		<g>
			<path d="M354.217,445.092l-35.025-21.21l-0.173-0.105l-19.185-11.618v-12.767c6.868-9.338,11.726-19.998,14.267-31.308
				c0.395-2.111,1.404-4.059,2.9-5.6c0.092-0.092,0.175-0.183,0.258-0.275c5.014-5.164,7.808-12.086,7.783-19.283v-18.083
				c-0.003-4.281-0.992-8.505-2.892-12.342l-1.033-2.092c-0.733-1.482-1.116-3.113-1.117-4.767v-26.008
				c0.069-27.079-21.796-49.104-48.875-49.233h-30.25c-27.079,0.129-48.944,22.154-48.875,49.233v26.008
				c-0.001,1.65-0.381,3.278-1.108,4.758l-1.042,2.092c-1.899,3.84-2.888,8.066-2.892,12.35v18.083
				c-0.023,7.194,2.767,14.111,7.775,19.275c0.083,0.1,0.175,0.192,0.267,0.283c1.496,1.541,2.505,3.489,2.9,5.6
				c2.538,11.311,7.396,21.972,14.267,31.308v12.767l-19.722,11.944c-0.107,0.057-0.201,0.124-0.305,0.185L157.775,445.1
				c-13.162,8.067-21.201,22.38-21.242,37.817v20.55c-0.001,2.264,0.897,4.435,2.498,6.035c1.601,1.601,3.772,2.499,6.035,2.498
				h221.867c2.264,0.001,4.435-0.897,6.035-2.498c1.601-1.601,2.499-3.772,2.498-6.035v-20.55
				C375.425,467.476,367.382,453.16,354.217,445.092z M207.35,350.708c-0.075-0.092-0.158-0.175-0.25-0.267
				c-1.966-2.009-3.069-4.706-3.075-7.517v-18.083c0-1.65,0.38-3.278,1.108-4.758l1.05-2.108c1.891-3.837,2.878-8.056,2.884-12.333
				v-26.008c-0.078-17.658,14.151-32.047,31.808-32.167h30.25c17.658,0.12,31.887,14.509,31.808,32.167v26.008
				c0.005,4.281,0.995,8.504,2.892,12.342l1.042,2.108c0.729,1.477,1.109,3.103,1.108,4.75v18.083
				c-0.006,2.811-1.109,5.508-3.075,7.517l-0.25,0.258c-3.72,3.878-6.248,8.743-7.283,14.017h0
				c-2.179,9.307-6.29,18.051-12.067,25.667c-1.647,2.299-2.533,5.056-2.533,7.883v13.823l-27.226,12.273l-26.307-12.218v-13.878
				c-0.004-2.848-0.902-5.623-2.567-7.933c-5.762-7.601-9.862-16.329-12.033-25.617C213.598,359.445,211.07,354.583,207.35,350.708z
				 M264.171,453.731l-4.713,7.069h-7.933l-4.719-7.071l8.684-8.227L264.171,453.731z M224.613,494.933H153.6v-12.017
				c0.021-9.476,4.95-18.265,13.025-23.225l29.217-17.694l16.817,13.211c4.625,3.625,10.332,5.597,16.208,5.6
				c0.683,0,1.352-0.12,2.03-0.175l6.212,9.313L224.613,494.933z M235.025,441.383c-0.89,0.84-1.971,1.449-3.15,1.775
				c-2.93,1.072-6.205,0.559-8.667-1.358l-11.773-9.246l9.208-5.578L240.5,436.2L235.025,441.383z M243.698,494.933l8.535-17.067
				h6.517l8.531,17.067H243.698z M291.33,426.958l8.651,5.24l-12.231,9.611c-2.612,1.971-6.068,2.424-9.1,1.192
				c-1.016-0.315-1.942-0.87-2.7-1.617l-5.358-5.083L291.33,426.958z M358.4,494.933h-72.037l-12.49-24.987l6.24-9.36
				c0.692,0.055,1.379,0.181,2.071,0.181c5.845,0.01,11.524-1.945,16.125-5.55l17.271-13.57l29.779,18.037
				c8.083,4.958,13.019,13.751,13.042,23.233V494.933z"/>
			<path d="M256,187.733c51.841,0,93.867-42.026,93.867-93.867C349.808,42.05,307.817,0.059,256,0
				c-51.841,0-93.867,42.026-93.867,93.867C162.133,145.708,204.159,187.733,256,187.733z M256,17.067
				c42.415,0,76.8,34.385,76.8,76.8c-0.046,42.396-34.404,76.754-76.8,76.8c-42.415,0-76.8-34.385-76.8-76.8
				C179.2,51.451,213.585,17.067,256,17.067z"/>
			<path d="M187.733,221.867c0-51.841-42.026-93.867-93.867-93.867C42.05,128.059,0.059,170.05,0,221.867
				c0,51.841,42.026,93.867,93.867,93.867C145.708,315.733,187.733,273.708,187.733,221.867z M93.867,298.667
				c-42.416,0-76.8-34.385-76.8-76.8c0.046-42.396,34.404-76.754,76.8-76.8c42.415,0,76.8,34.385,76.8,76.8
				S136.282,298.667,93.867,298.667z"/>
			<path d="M418.133,128c-51.841,0-93.867,42.026-93.867,93.867s42.026,93.867,93.867,93.867S512,273.708,512,221.867
				C511.941,170.05,469.95,128.059,418.133,128z M418.133,298.667c-42.415,0-76.8-34.385-76.8-76.8s34.385-76.8,76.8-76.8
				s76.8,34.385,76.8,76.8C494.887,264.263,460.53,298.62,418.133,298.667z"/>
			<path d="M256,153.6c32.99,0,59.733-26.744,59.733-59.733c-0.04-32.973-26.76-59.693-59.733-59.733
				c-32.99,0-59.733,26.744-59.733,59.733S223.01,153.6,256,153.6z M256,51.2c23.564,0,42.667,19.102,42.667,42.667
				c-0.028,23.553-19.114,42.639-42.667,42.667c-23.564,0-42.667-19.102-42.667-42.667C213.333,70.302,232.436,51.2,256,51.2z"/>
			<path d="M256,119.467c14.138,0,25.6-11.461,25.6-25.6c-0.015-14.132-11.468-25.585-25.6-25.6c-14.138,0-25.6,11.461-25.6,25.6
				C230.4,108.005,241.862,119.467,256,119.467z M256,85.333c4.713,0,8.533,3.821,8.533,8.533c-0.003,4.711-3.822,8.53-8.533,8.533
				c-4.713,0-8.533-3.821-8.533-8.533C247.467,89.154,251.287,85.333,256,85.333z"/>
			<path d="M93.867,213.333c-4.713,0-8.533-3.821-8.533-8.533s3.821-8.533,8.533-8.533h17.067c4.713,0,8.533-3.82,8.533-8.533
				s-3.82-8.533-8.533-8.533H102.4v-8.533c0-4.713-3.821-8.533-8.533-8.533c-4.713,0-8.533,3.82-8.533,8.533v10.106
				c-11.753,4.132-18.808,16.141-16.697,28.418s12.773,21.24,25.231,21.209c4.713,0,8.533,3.82,8.533,8.533
				s-3.821,8.533-8.533,8.533H76.8c-4.713,0-8.533,3.82-8.533,8.533s3.82,8.533,8.533,8.533h8.533v8.533
				c0,4.713,3.821,8.533,8.533,8.533c4.713,0,8.533-3.821,8.533-8.533v-10.106c11.753-4.132,18.808-16.141,16.697-28.418
				S106.324,213.302,93.867,213.333z"/>
			<path d="M468.758,193.415c-0.071-0.201-0.098-0.412-0.184-0.605c-0.024-0.052-0.024-0.109-0.049-0.16
				c-0.396-0.823-0.924-1.577-1.562-2.231c-0.175-0.184-0.38-0.319-0.571-0.487c-1.549-1.365-3.528-2.143-5.592-2.199h-17.067
				c-4.501,0.001-8.227,3.497-8.515,7.988c-0.288,4.491,2.96,8.435,7.424,9.012l-24.158,28.983l-19.125-25.5
				c-1.694-2.174-4.302-3.436-7.058-3.417c-2.77,0.077-5.33,1.494-6.867,3.8l-17.067,25.6c-1.722,2.536-1.951,5.802-0.6,8.554
				s4.075,4.568,7.134,4.756c3.06,0.189,5.986-1.278,7.665-3.843l10.375-15.567l18.367,24.483c1.564,2.09,3.999,3.349,6.609,3.417
				h0.217c2.532-0.003,4.933-1.125,6.558-3.067l29.133-34.959c1.517,2.393,4.141,3.858,6.975,3.893
				c2.264,0.001,4.435-0.897,6.035-2.498c1.601-1.601,2.499-3.772,2.498-6.035v-17.067c0-0.156-0.08-0.285-0.089-0.439
				C469.203,195.004,469.039,194.191,468.758,193.415z"/>
		</g>
	</g>
</g>
<g>
</g>
<g>
</g>
<g>
</g>
<g>
</g>
<g>
</g>
<g>
</g>
<g>
</g>
<g>
</g>
<g>
</g>
<g>
</g>
<g>
</g>
<g>
</g>
<g>
</g>
<g>
</g>
<g>
</g>
</svg>
